<svg width="274" height="118" viewBox="0 0 274 118" fill="none" xmlns="http://www.w3.org/2000/svg">
<path d="M142.665 71.3934H138.261C138.001 70.1269 137.545 69.0142 136.894 68.0554C136.255 67.0966 135.474 66.2916 134.55 65.6406C133.639 64.9777 132.627 64.4806 131.514 64.1491C130.402 63.8177 129.241 63.652 128.034 63.652C125.832 63.652 123.838 64.2083 122.05 65.321C120.275 66.4337 118.86 68.0731 117.807 70.2393C116.765 72.4055 116.244 75.063 116.244 78.2116C116.244 81.3603 116.765 84.0177 117.807 86.1839C118.86 88.3501 120.275 89.9896 122.05 91.1023C123.838 92.2149 125.832 92.7713 128.034 92.7713C129.241 92.7713 130.402 92.6056 131.514 92.2741C132.627 91.9427 133.639 91.4514 134.55 90.8004C135.474 90.1375 136.255 89.3267 136.894 88.3679C137.545 87.3972 138.001 86.2845 138.261 85.0298H142.665C142.333 86.8882 141.73 88.5514 140.854 90.0192C139.978 91.487 138.889 92.7358 137.587 93.7656C136.285 94.7836 134.823 95.5589 133.201 96.0916C131.591 96.6243 129.869 96.8906 128.034 96.8906C124.933 96.8906 122.175 96.133 119.76 94.6179C117.345 93.1027 115.445 90.9484 114.06 88.1548C112.675 85.3613 111.983 82.0469 111.983 78.2116C111.983 74.3764 112.675 71.062 114.06 68.2684C115.445 65.4749 117.345 63.3205 119.76 61.8054C122.175 60.2902 124.933 59.5327 128.034 59.5327C129.869 59.5327 131.591 59.799 133.201 60.3317C134.823 60.8643 136.285 61.6456 137.587 62.6754C138.889 63.6934 139.978 64.9363 140.854 66.4041C141.73 67.8601 142.333 69.5232 142.665 71.3934ZM149.78 96.3934V60.0298H154.184V92.4872H171.087V96.3934H149.78ZM181.692 96.3934H177.075L190.428 60.0298H194.973L208.325 96.3934H203.709L192.842 65.7827H192.558L181.692 96.3934ZM183.396 82.1889H202.004V86.0952H183.396V82.1889ZM233.876 69.1207C233.663 67.3215 232.799 65.9247 231.283 64.9304C229.768 63.9361 227.91 63.4389 225.708 63.4389C224.098 63.4389 222.69 63.6993 221.482 64.2202C220.287 64.741 219.352 65.4571 218.677 66.3686C218.014 67.28 217.683 68.3158 217.683 69.4758C217.683 70.4465 217.913 71.281 218.375 71.9794C218.848 72.6659 219.452 73.24 220.186 73.7017C220.92 74.1515 221.689 74.5244 222.494 74.8203C223.299 75.1044 224.039 75.3352 224.714 75.5128L228.407 76.5071C229.354 76.7557 230.407 77.0989 231.567 77.5369C232.739 77.9749 233.858 78.5727 234.923 79.3302C236 80.076 236.888 81.0348 237.587 82.2067C238.285 83.3785 238.634 84.8167 238.634 86.5213C238.634 88.4863 238.119 90.2618 237.089 91.848C236.071 93.4342 234.58 94.6948 232.615 95.63C230.662 96.5651 228.289 97.0327 225.495 97.0327C222.891 97.0327 220.636 96.6124 218.73 95.772C216.836 94.9316 215.345 93.7597 214.256 92.2564C213.179 90.7531 212.569 89.0071 212.427 87.0184H216.972C217.091 88.3916 217.552 89.5279 218.357 90.4275C219.174 91.3153 220.204 91.9782 221.447 92.4162C222.701 92.8423 224.051 93.0554 225.495 93.0554C227.176 93.0554 228.685 92.7831 230.023 92.2386C231.36 91.6823 232.42 90.9129 233.201 89.9304C233.982 88.9361 234.373 87.776 234.373 86.4503C234.373 85.2429 234.036 84.2604 233.361 83.5028C232.686 82.7452 231.798 82.1297 230.697 81.6562C229.597 81.1827 228.407 80.7684 227.129 80.4133L222.654 79.1349C219.813 78.3182 217.564 77.1522 215.907 75.6371C214.25 74.1219 213.421 72.1392 213.421 69.6889C213.421 67.6529 213.972 65.8773 215.072 64.3622C216.185 62.8352 217.677 61.6515 219.547 60.8111C221.429 59.9588 223.53 59.5327 225.85 59.5327C228.194 59.5327 230.277 59.9529 232.1 60.7933C233.923 61.6219 235.367 62.7583 236.433 64.2024C237.51 65.6465 238.078 67.286 238.137 69.1207H233.876ZM265.76 69.1207C265.547 67.3215 264.683 65.9247 263.168 64.9304C261.653 63.9361 259.795 63.4389 257.593 63.4389C255.983 63.4389 254.574 63.6993 253.367 64.2202C252.171 64.741 251.236 65.4571 250.562 66.3686C249.899 67.28 249.567 68.3158 249.567 69.4758C249.567 70.4465 249.798 71.281 250.26 71.9794C250.733 72.6659 251.337 73.24 252.071 73.7017C252.805 74.1515 253.574 74.5244 254.379 74.8203C255.184 75.1044 255.924 75.3352 256.599 75.5128L260.292 76.5071C261.239 76.7557 262.292 77.0989 263.452 77.5369C264.624 77.9749 265.743 78.5727 266.808 79.3302C267.885 80.076 268.773 81.0348 269.471 82.2067C270.17 83.3785 270.519 84.8167 270.519 86.5213C270.519 88.4863 270.004 90.2618 268.974 91.848C267.956 93.4342 266.465 94.6948 264.5 95.63C262.547 96.5651 260.173 97.0327 257.38 97.0327C254.776 97.0327 252.521 96.6124 250.615 95.772C248.721 94.9316 247.229 93.7597 246.14 92.2564C245.063 90.7531 244.454 89.0071 244.312 87.0184H248.857C248.975 88.3916 249.437 89.5279 250.242 90.4275C251.059 91.3153 252.089 91.9782 253.331 92.4162C254.586 92.8423 255.936 93.0554 257.38 93.0554C259.061 93.0554 260.57 92.7831 261.907 92.2386C263.245 91.6823 264.305 90.9129 265.086 89.9304C265.867 88.9361 266.258 87.776 266.258 86.4503C266.258 85.2429 265.92 84.2604 265.246 83.5028C264.571 82.7452 263.683 82.1297 262.582 81.6562C261.481 81.1827 260.292 80.7684 259.013 80.4133L254.539 79.1349C251.698 78.3182 249.449 77.1522 247.792 75.6371C246.135 74.1219 245.306 72.1392 245.306 69.6889C245.306 67.6529 245.856 65.8773 246.957 64.3622C248.07 62.8352 249.561 61.6515 251.432 60.8111C253.314 59.9588 255.415 59.5327 257.735 59.5327C260.079 59.5327 262.162 59.9529 263.985 60.7933C265.808 61.6219 267.252 62.7583 268.317 64.2024C269.394 65.6465 269.963 67.286 270.022 69.1207H265.76Z" fill="#6142B8"/>
<path d="M22 24.3688L87.4545 24.3688V63.8716H80.4233V32.2949H58.3068V61.8262H51.2756V32.2949L29.0312 32.2949V64.383H22V24.3688Z" fill="#743DE7"/>
<path d="M42.5 46.2804L42.5 54.2066C40.2202 54.6753 38.2173 55.4956 36.4915 56.6675C34.7656 57.8181 33.3168 59.2243 32.1449 60.8863C30.9517 62.5269 30.0568 64.3486 29.4602 66.3515C28.8636 68.3543 28.5653 70.4424 28.5653 72.6157C28.5653 76.5787 29.5668 80.1689 31.5696 83.3863C33.5724 86.5823 36.5234 89.1285 40.4226 91.0248C44.3217 92.8998 49.1051 93.8373 54.7727 93.8373C60.4403 93.8373 65.2237 92.8998 69.1229 91.0248C73.022 89.1285 75.973 86.5823 77.9759 83.3863C79.9787 80.1689 80.9801 76.5787 80.9801 72.6157C80.9801 70.4424 80.6818 68.3543 80.0852 66.3515C79.4886 64.3486 78.6044 62.5269 77.4325 60.8863C76.2393 59.2243 74.7798 57.8181 73.054 56.6675C71.3068 55.4956 69.304 54.6753 67.0455 54.2066V46.2804C70.3906 46.877 73.3842 47.9637 76.0263 49.5404C78.6683 51.1171 80.9162 53.0773 82.7699 55.4211C84.6023 57.7648 85.9979 60.3962 86.9567 63.3153C87.9155 66.213 88.3949 69.3131 88.3949 72.6157C88.3949 78.1981 87.0312 83.1626 84.304 87.5091C81.5767 91.8557 77.6989 95.2755 72.6705 97.7684C67.642 100.261 61.6761 101.508 54.7727 101.508C47.8693 101.508 41.9034 100.261 36.875 97.7684C31.8466 95.2755 27.9687 91.8557 25.2415 87.5091C22.5142 83.1626 21.1506 78.1981 21.1506 72.6157C21.1506 69.3131 21.63 66.213 22.5888 63.3153C23.5476 60.3962 24.9538 57.7648 26.8075 55.4211C28.6399 53.0773 30.8771 51.1171 33.5192 49.5404C36.1399 47.9637 39.1335 46.877 42.5 46.2804Z" fill="#743DE7"/>
<path d="M113.403 49V12.6364H135.349V16.5426H117.807V28.8295H134.213V32.7358H117.807V45.0938H135.634V49H113.403ZM154.508 49H143.286V12.6364H155.005C158.532 12.6364 161.551 13.3643 164.06 14.8203C166.57 16.2644 168.493 18.3419 169.831 21.0526C171.169 23.7514 171.837 26.983 171.837 30.7472C171.837 34.535 171.163 37.7962 169.813 40.5305C168.464 43.2531 166.499 45.3482 163.918 46.8161C161.338 48.272 158.201 49 154.508 49ZM147.69 45.0938H154.224C157.23 45.0938 159.722 44.5137 161.699 43.3537C163.676 42.1937 165.149 40.5424 166.12 38.3999C167.091 36.2573 167.576 33.7064 167.576 30.7472C167.576 27.8116 167.097 25.2843 166.138 23.1655C165.179 21.0348 163.747 19.4013 161.841 18.2649C159.935 17.1167 157.562 16.5426 154.721 16.5426H147.69V45.0938ZM203.087 12.6364H207.491V36.7131C207.491 39.1989 206.905 41.4183 205.733 43.3714C204.573 45.3127 202.933 46.8456 200.815 47.9702C198.696 49.0829 196.21 49.6392 193.357 49.6392C190.504 49.6392 188.019 49.0829 185.9 47.9702C183.781 46.8456 182.136 45.3127 180.964 43.3714C179.804 41.4183 179.224 39.1989 179.224 36.7131V12.6364H183.627V36.358C183.627 38.1335 184.018 39.7138 184.799 41.0987C185.58 42.4718 186.693 43.5549 188.137 44.348C189.593 45.1293 191.333 45.5199 193.357 45.5199C195.381 45.5199 197.121 45.1293 198.577 44.348C200.033 43.5549 201.146 42.4718 201.915 41.0987C202.697 39.7138 203.087 38.1335 203.087 36.358V12.6364Z" fill="#743DE7"/>
</svg>
